<?xml version="1.0" encoding="UTF-8"?>
<svg version="1.1" xmlns="http://www.w3.org/2000/svg" width="549" height="654">
<path d="M0 0 C16.02685782 7.97107464 27.79099943 11.39747486 45.69140625 6.16015625 C53.81255688 3.38454682 61.74206041 -0.61776482 68.81640625 -5.46484375 C72.3614675 -7.75133304 74.4350373 -7.85988452 78.578125 -7.24609375 C81.015625 -5.74609375 81.015625 -5.74609375 82.578125 -3.24609375 C84.02884216 5.61940003 79.84992282 14.96910055 74.765625 22.12890625 C67.01581251 31.5238196 57.64369368 37.75479077 45.33251953 38.97680664 C33.23723902 39.56791017 22.12225264 38.36793988 10.578125 34.75390625 C9.62123779 34.45637451 9.62123779 34.45637451 8.64501953 34.15283203 C-6.12163706 29.39951901 -20.80106438 22.28092773 -33.74194336 13.75415039 C-36.36160728 12.19438247 -38.3829291 11.75390625 -41.421875 11.75390625 C-49.24068014 13.78100388 -54.00127594 19.86132127 -58.15625 26.54296875 C-58.57390625 27.27257813 -58.9915625 28.0021875 -59.421875 28.75390625 C-58.86951172 28.9240625 -58.31714844 29.09421875 -57.74804688 29.26953125 C-26.89483114 38.88080641 0.99559797 53.92767452 16.953125 83.19140625 C26.77862049 102.05861802 30.20003241 122.90764939 27.703125 143.94140625 C27.62473389 144.61905029 27.54634277 145.29669434 27.46557617 145.99487305 C26.93761935 150.11982044 26.02084134 153.85614739 24.578125 157.75390625 C25.155625 157.93953125 25.733125 158.12515625 26.328125 158.31640625 C29.98696796 160.65400037 31.93047643 164.49184644 33.11523438 168.62988281 C36.29401755 183.21607145 32.58036603 198.73518451 25.1328125 211.3515625 C20.53298869 218.45933045 15.80803716 223.02936625 7.578125 225.75390625 C6.06029351 225.82655663 4.54198594 225.88962459 3.0234375 225.9453125 C0.68782736 226.1006504 0.68782736 226.1006504 -1.421875 226.75390625 C-3.41681187 229.24998668 -4.47598815 230.98115805 -5.734375 233.81640625 C-8.87562492 240.09677065 -12.33944205 245.73631256 -16.609375 251.31640625 C-17.09639893 251.95779541 -17.58342285 252.59918457 -18.08520508 253.26000977 C-21.38817237 257.54933803 -24.8626906 261.67562511 -28.421875 265.75390625 C-27.0284481 271.50179222 -23.03362335 274.46688251 -18.421875 277.75390625 C-7.97305552 283.6671515 2.91828958 287.90076657 14.25518799 291.76895142 C34.13658392 298.57936031 53.93523274 305.5496281 70.578125 318.75390625 C71.95097656 319.83671875 71.95097656 319.83671875 73.3515625 320.94140625 C92.77756715 337.41732997 107.31717401 362.36964069 110.578125 387.75390625 C112.62107293 418.03318536 101.7609202 441.40392662 82.1328125 463.88671875 C57.35402909 491.696546 22.05157776 509.19369986 -12.421875 521.75390625 C-31.35211023 528.65228876 -50.51944449 536.10088878 -66.421875 548.75390625 C-67.19273437 549.33398438 -67.96359375 549.9140625 -68.7578125 550.51171875 C-74.75094567 555.30176942 -78.99026111 561.45906458 -81.421875 568.75390625 C-81.94840062 574.96690862 -81.21811728 579.66856566 -77.421875 584.75390625 C-73.21873015 588.68706807 -69.05560645 591.1107052 -63.859375 593.50390625 C-49.50304775 600.4230982 -35.05073882 609.62181021 -28.421875 624.75390625 C-27.10727912 629.7611872 -26.9359151 633.43487223 -28.734375 638.31640625 C-30.421875 640.75390625 -30.421875 640.75390625 -32.421875 641.75390625 C-37.47264487 642.27804275 -39.43080105 642.42920843 -43.6953125 639.5234375 C-44.74383365 638.55337712 -45.77736329 637.56691093 -46.796875 636.56640625 C-63.24509023 621.63725584 -84.38231596 620.97635865 -105.64892578 620.46704102 C-132.8389143 619.78682024 -153.54702113 611.49767087 -173.421875 592.75390625 C-174.10121094 592.150625 -174.78054688 591.54734375 -175.48046875 590.92578125 C-190.83680576 576.71267255 -200.6736809 554.99334349 -201.8046875 534.22265625 C-202.51870731 511.01798004 -196.24394041 491.6429321 -183.2421875 472.546875 C-181.30980508 469.83948054 -181.30980508 469.83948054 -180.421875 466.75390625 C-183.061875 464.77390625 -185.701875 462.79390625 -188.421875 460.75390625 C-192.33138997 462.70866374 -193.82992002 464.41768372 -196.53515625 467.6953125 C-200.37952352 471.88989128 -204.92856251 475.28657708 -209.421875 478.75390625 C-210.59556641 479.66849609 -210.59556641 479.66849609 -211.79296875 480.6015625 C-230.73894399 494.62733506 -253.13513568 501.32744069 -276.63916016 498.48583984 C-306.40311934 493.47914959 -330.04758272 471.41535879 -347.19775391 447.82714844 C-375.9887163 407.3420421 -375.9887163 407.3420421 -375.421875 391.75390625 C-375.091875 391.42390625 -374.761875 391.09390625 -374.421875 390.75390625 C-375.64704834 390.7398877 -375.64704834 390.7398877 -376.89697266 390.72558594 C-380.61421006 390.67175118 -384.330207 390.58812631 -388.046875 390.50390625 C-389.33207031 390.48972656 -390.61726563 390.47554688 -391.94140625 390.4609375 C-403.75288084 390.15494075 -403.75288084 390.15494075 -408.421875 385.75390625 C-411.85131274 381.86103098 -413.55398085 379.5697833 -413.51953125 374.40234375 C-413.51630859 373.5515625 -413.51308594 372.70078125 -413.50976562 371.82421875 C-413.50138672 370.93476563 -413.49300781 370.0453125 -413.484375 369.12890625 C-413.47986328 368.23171875 -413.47535156 367.33453125 -413.47070312 366.41015625 C-413.45890091 364.19133977 -413.44243655 361.97265607 -413.421875 359.75390625 C-414.49566406 359.78226562 -415.56945312 359.810625 -416.67578125 359.83984375 C-421.58479571 359.72722819 -424.51042484 358.68749387 -428.421875 355.75390625 C-437.17384878 346.33337891 -437.17384878 346.33337891 -437.734375 340.50390625 C-437.22492813 334.39054386 -433.7890374 330.80912848 -429.421875 326.75390625 C-430.370625 326.05265625 -431.319375 325.35140625 -432.296875 324.62890625 C-435.47316022 321.93319374 -436.70686387 319.96452735 -437.421875 315.75390625 C-437.28136591 311.38407357 -436.79893636 307.16788636 -435.671875 302.94140625 C-435.16832919 300.62483484 -435.16832919 300.62483484 -436.87890625 298.57421875 C-440.00795814 292.8547872 -439.4438016 284.38559165 -437.6953125 278.171875 C-435.7070153 273.94472282 -432.96795318 270.80518282 -429.421875 267.75390625 C-428.90753906 267.31046875 -428.39320313 266.86703125 -427.86328125 266.41015625 C-424.58886039 263.80876878 -421.80555993 262.43524966 -417.6875 261.609375 C-416.88602539 261.4446167 -416.08455078 261.2798584 -415.25878906 261.11010742 C-414.3495166 260.93378784 -414.3495166 260.93378784 -413.421875 260.75390625 C-413.43297806 259.7443689 -413.44408112 258.73483154 -413.45552063 257.69470215 C-413.55706397 248.16123314 -413.63192049 238.62787446 -413.68093586 229.09398651 C-413.70698288 224.19296149 -413.74229115 219.29237451 -413.79907227 214.39160156 C-413.85356713 209.65830709 -413.88333234 204.92543283 -413.89626122 200.19184875 C-413.90546982 198.38976938 -413.92345228 196.58771191 -413.95052528 194.78581238 C-414.19523599 177.81726234 -414.19523599 177.81726234 -410.08439636 172.13879395 C-404.22385248 167.2569348 -398.64905773 167.31819819 -391.37109375 167.34985352 C-390.2679483 167.34299026 -389.16480286 167.33612701 -388.02822876 167.32905579 C-384.38847924 167.31078195 -380.74916046 167.31462594 -377.109375 167.3203125 C-374.57641459 167.31575137 -372.04345542 167.310446 -369.51049805 167.3044281 C-364.20453275 167.29549609 -358.898724 167.29768741 -353.59277344 167.30786133 C-347.46802507 167.31934606 -341.34371441 167.30525696 -335.2190237 167.27846485 C-329.31474076 167.25360856 -323.41059349 167.2511343 -317.5062561 167.25758171 C-314.99922965 167.25773511 -312.49219484 167.25167569 -309.98519897 167.23929024 C-306.48068652 167.22441461 -302.9771385 167.23503302 -299.47265625 167.25219727 C-297.92017685 167.23769531 -297.92017685 167.23769531 -296.33633423 167.22290039 C-290.52545058 167.28250154 -286.9704563 167.75718155 -282.421875 171.75390625 C-277.71828161 177.85586524 -277.27283922 182.30357149 -277.30834961 189.82714844 C-277.30820358 190.6372789 -277.30805756 191.44740936 -277.3079071 192.28208923 C-277.30860276 194.95501398 -277.31637894 197.6278687 -277.32421875 200.30078125 C-277.32608416 202.15594444 -277.32750748 204.01110812 -277.32850647 205.86627197 C-277.33232195 210.74559899 -277.34214398 215.62489618 -277.35321045 220.50421143 C-277.36344539 225.48457435 -277.36800856 230.46494209 -277.37304688 235.4453125 C-277.3837671 245.21485685 -277.40083191 254.98437907 -277.421875 264.75390625 C-276.47642822 264.2640625 -275.53098145 263.77421875 -274.55688477 263.26953125 C-270.41275627 261.26604634 -267.73632399 261.31872797 -263.421875 262.75390625 C-258.7937478 266.1478662 -256.91029564 270.33610188 -255.421875 275.75390625 C-254.99581074 278.91254029 -254.94499057 282.00720628 -254.984375 285.19140625 C-254.99573486 286.49694458 -254.99573486 286.49694458 -255.00732422 287.82885742 C-255.39212476 303.26160628 -259.67877177 321.02996947 -269.609375 333.12890625 C-274.91620835 340.06627428 -275.65900617 347.32565798 -276.421875 355.75390625 C-276.52677246 356.80852051 -276.63166992 357.86313477 -276.73974609 358.94970703 C-277.06243543 362.42417677 -277.31567031 365.89722133 -277.546875 369.37890625 C-277.64218506 370.49338135 -277.73749512 371.60785645 -277.83569336 372.75610352 C-278.18482996 378.59089432 -278.18482996 378.59089432 -276.09228516 383.88549805 C-274.30775158 385.71662584 -272.47376012 387.2310346 -270.421875 388.75390625 C-269.27845614 389.71331564 -268.13522029 390.67294318 -266.9921875 391.6328125 C-265.84780195 392.53252165 -264.69930216 393.42702079 -263.546875 394.31640625 C-262.94335205 394.79037842 -262.3398291 395.26435059 -261.71801758 395.75268555 C-258.29309309 398.41418199 -254.81986329 400.81042937 -251.109375 403.06640625 C-248.17105895 404.97056637 -247.54629399 405.44907972 -246.171875 408.81640625 C-246.46489252 412.25936213 -247.32180989 414.03159963 -249.421875 416.75390625 C-252.25859818 418.17226784 -254.27006675 418.01751203 -257.421875 417.75390625 C-265.42996726 413.78961661 -272.47199874 407.47091685 -279.21875 401.66015625 C-279.71287888 401.23898026 -280.20700775 400.81780426 -280.71611023 400.38386536 C-282.421875 398.75390625 -282.421875 398.75390625 -283.91119385 396.74755859 C-286.87890496 393.01636682 -289.13005395 391.01675229 -293.8805542 390.0501709 C-298.18769287 389.82817735 -302.42630168 389.85259993 -306.734375 389.97265625 C-308.31474937 389.98759814 -309.89516109 389.99897596 -311.47558594 390.00695801 C-315.61281677 390.03734097 -319.7477603 390.11577623 -323.88409424 390.20458984 C-328.11382103 390.28678565 -332.34392159 390.32304084 -336.57421875 390.36328125 C-344.85781448 390.44879116 -353.13955934 390.58512154 -361.421875 390.75390625 C-360.16975395 393.26326292 -358.91706505 395.77233352 -357.6640625 398.28125 C-357.31496826 398.98100952 -356.96587402 399.68076904 -356.60620117 400.4017334 C-339.92519038 433.79268159 -318.74175418 467.10943928 -282.375 480.91015625 C-265.18572168 486.03844923 -247.28754503 482.64835162 -231.671875 474.56640625 C-220.51489607 468.50940358 -210.76894771 460.33221745 -202.421875 450.75390625 C-202.421875 450.09390625 -202.421875 449.43390625 -202.421875 448.75390625 C-203.8140625 447.64015625 -203.8140625 447.64015625 -205.234375 446.50390625 C-216.63066751 436.9569107 -226.6582952 422.04462552 -229.2109375 407.2109375 C-230.52938844 391.8534256 -230.52938844 391.8534256 -228.1484375 387.33984375 C-225.79144979 385.17482789 -223.56956262 385.22695189 -220.45703125 385.125 C-217.24606247 386.11725715 -216.17022672 387.95808389 -214.421875 390.75390625 C-213.98828125 393.59375 -213.98828125 393.59375 -213.984375 396.69140625 C-213.01887652 415.26675746 -202.1316531 428.0954455 -189.13183594 440.21679688 C-183.48812145 445.29001595 -177.42627932 449.88884403 -171.0078125 453.9375 C-169.92757813 454.61941406 -168.84734375 455.30132812 -167.734375 456.00390625 C-166.76113281 456.5865625 -165.78789062 457.16921875 -164.78515625 457.76953125 C-161.8598081 460.22585664 -161.18761275 462.04715027 -160.421875 465.75390625 C-161.99277563 471.58868003 -165.50806357 475.42040961 -169.30078125 480.02734375 C-183.62938254 498.44606143 -187.5634559 519.56449327 -185.02734375 542.2890625 C-180.55325027 563.2740042 -165.72357829 581.74726915 -148.15551758 593.28735352 C-137.05380552 600.30781972 -125.68522455 603.823996 -112.6171875 604.3515625 C-111.41024734 604.41034828 -111.41024734 604.41034828 -110.17892456 604.47032166 C-107.63518901 604.593001 -105.09113766 604.70524914 -102.546875 604.81640625 C-99.19514536 604.97050508 -95.84363366 605.12892557 -92.4921875 605.2890625 C-91.69605042 605.32649567 -90.89991333 605.36392883 -90.07965088 605.40249634 C-84.17665342 605.69002361 -78.29921836 606.12413178 -72.421875 606.75390625 C-73.12771729 606.42205322 -73.83355957 606.0902002 -74.56079102 605.74829102 C-85.76322225 600.42265323 -92.08578948 593.87654925 -96.859375 582.25390625 C-98.86970258 569.74520131 -96.48886087 559.87684063 -89.41796875 549.41015625 C-71.36366871 525.38486462 -39.7901262 514.74799588 -12.765625 504.6328125 C11.43266241 495.57512096 34.62798772 484.44793304 54.578125 467.75390625 C55.77050034 466.78734948 56.96322356 465.82122175 58.15625 464.85546875 C65.55219555 458.78460967 71.85858751 452.47929355 77.578125 444.75390625 C78.19042969 443.96757812 78.80273438 443.18125 79.43359375 442.37109375 C91.63731075 426.04559154 96.95926067 406.88329368 94.30126953 386.64599609 C90.48105767 364.04443061 75.69589072 341.81484991 57.3359375 328.2890625 C51.32842054 324.14599131 44.99798867 320.86739856 38.33984375 317.921875 C37.17606956 317.40614174 37.17606956 317.40614174 35.98878479 316.87998962 C26.37158732 312.69577679 16.46064279 309.34154413 6.53442383 305.97485352 C-2.53473979 302.88567245 -11.28373391 299.58492882 -19.7734375 295.11328125 C-20.80417137 294.57109703 -20.80417137 294.57109703 -21.85572815 294.01795959 C-27.85162087 290.73882542 -32.66006573 286.66598957 -37.421875 281.75390625 C-38.16824219 281.00753906 -38.91460937 280.26117188 -39.68359375 279.4921875 C-40.25722656 278.91855469 -40.83085937 278.34492188 -41.421875 277.75390625 C-42.411875 278.62015625 -43.401875 279.48640625 -44.421875 280.37890625 C-49.26588358 284.51990762 -54.32210437 288.29114469 -59.55078125 291.93359375 C-68.31062645 298.0430562 -76.4694711 304.62639577 -84.421875 311.75390625 C-85.12054688 312.3675 -85.81921875 312.98109375 -86.5390625 313.61328125 C-94.62254468 321.13799738 -101.27997699 330.84746005 -103.421875 341.75390625 C-102.82761719 342.03234375 -102.23335938 342.31078125 -101.62109375 342.59765625 C-98.00865387 344.49691416 -94.27299059 347.05167507 -92.421875 350.75390625 C-92.07250251 354.52712913 -91.86772826 356.87650725 -93.921875 360.12890625 C-99.37082837 363.67072594 -106.27950871 362.86980922 -112.484375 362.06640625 C-113.21970459 361.97246582 -113.95503418 361.87852539 -114.71264648 361.78173828 C-135.17804254 358.96211037 -153.55048412 351.57381089 -166.5390625 335.0625 C-173.70823142 324.4933604 -177.60465632 313.12872608 -177.484375 300.37890625 C-177.47535156 299.13367188 -177.46632813 297.8884375 -177.45703125 296.60546875 C-177.44542969 295.66445313 -177.43382812 294.7234375 -177.421875 293.75390625 C-195.0271917 303.00524981 -212.29070837 312.71986622 -227.421875 325.75390625 C-228.25976562 326.45902344 -229.09765625 327.16414063 -229.9609375 327.890625 C-239.38442101 336.04720514 -245.91493937 345.10377072 -251.85546875 355.9453125 C-253.421875 358.75390625 -253.421875 358.75390625 -254.421875 359.75390625 C-257.35130042 360.04204646 -259.57135867 360.24004082 -262.421875 359.75390625 C-264.984375 357.62890625 -264.984375 357.62890625 -266.421875 354.75390625 C-266.69891383 342.8412366 -255.21669591 330.88411122 -247.5625 322.609375 C-231.11703897 305.39294725 -207.86540158 288.92723778 -185.421875 280.75390625 C-188.72562717 276.88781328 -192.00963222 273.09646441 -195.734375 269.62890625 C-214.70916374 250.78146509 -224.66784009 223.50597396 -229.421875 197.75390625 C-229.74285156 196.12582031 -229.74285156 196.12582031 -230.0703125 194.46484375 C-231.05622632 188.7065355 -231.46723592 183.14029121 -231.5859375 177.3046875 C-231.61276611 176.12769287 -231.63959473 174.95069824 -231.66723633 173.73803711 C-231.71088749 171.39150961 -231.73275467 169.04444062 -231.72924805 166.69750977 C-231.85027608 159.42895725 -233.11229789 154.00755356 -236.3034668 147.45800781 C-242.79980207 131.75108586 -232.88603173 106.98111914 -226.82592773 92.14331055 C-219.92297458 75.97132507 -209.89508864 62.0701144 -197.421875 49.75390625 C-196.67550781 49.00882813 -195.92914063 48.26375 -195.16015625 47.49609375 C-175.11537309 28.5999026 -146.9460043 19.21652852 -119.66796875 19.82421875 C-111.53535381 20.11766708 -103.48651645 20.65418242 -95.421875 21.75390625 C-94.88820313 20.93148437 -94.35453125 20.1090625 -93.8046875 19.26171875 C-84.45992975 5.13295533 -72.48028217 -7.5450043 -55.42578125 -11.84375 C-34.64588037 -14.62701371 -18.39286621 -9.1539868 0 0 Z M-182.421875 56.75390625 C-183.22109375 57.40875 -184.0203125 58.06359375 -184.84375 58.73828125 C-204.08877059 75.1144789 -218.82208595 101.98938232 -221.171875 127.12890625 C-221.2695641 128.66972986 -221.3589104 130.21127343 -221.421875 131.75390625 C-185.65645086 124.64525052 -151.24876897 103.8907408 -124.421875 79.75390625 C-123.6484375 79.06425781 -122.875 78.37460938 -122.078125 77.6640625 C-110.58753799 66.8187802 -101.64304915 53.15845635 -93.421875 39.75390625 C-99.26956038 33.90622087 -112.56035399 34.72136945 -120.359375 34.50390625 C-143.16453968 34.7459422 -164.9608369 41.80524773 -182.421875 56.75390625 Z M-77.421875 40.75390625 C-78.31275901 42.09580268 -79.15434767 43.47043333 -79.9765625 44.85546875 C-80.50419189 45.73211182 -81.03182129 46.60875488 -81.57543945 47.51196289 C-82.42755005 48.93109985 -82.42755005 48.93109985 -83.296875 50.37890625 C-87.81219026 57.82845231 -92.49228418 64.87283324 -98.16943359 71.48876953 C-100.81209841 74.63244161 -101.421875 75.45244227 -101.421875 79.75390625 C-99.6243354 82.25882307 -99.6243354 82.25882307 -97.234375 84.69140625 C-96.40550781 85.57570312 -95.57664062 86.46 -94.72265625 87.37109375 C-92.31630185 89.86324346 -89.9024354 92.33535986 -87.421875 94.75390625 C-86.57882812 95.66462891 -86.57882812 95.66462891 -85.71875 96.59375 C-60.37582711 123.33923924 -23.95868499 141.43573143 10.578125 152.75390625 C16.68345159 132.20427042 13.73823443 109.01406323 3.72265625 90.0703125 C-0.52239156 82.87660873 -5.52366282 76.65211843 -11.421875 70.75390625 C-12.19273437 69.98304687 -12.96359375 69.2121875 -13.7578125 68.41796875 C-29.15551709 53.81755631 -55.67895956 40.75390625 -77.421875 40.75390625 Z M-113.421875 88.75390625 C-114.329375 89.70265625 -115.236875 90.65140625 -116.171875 91.62890625 C-143.21414577 118.94599685 -183.11427927 136.25925111 -219.421875 146.75390625 C-219.09960938 147.79289062 -218.77734375 148.831875 -218.4453125 149.90234375 C-216.92597828 155.9876912 -217.12694624 162.14192883 -217.046875 168.37890625 C-216.734454 181.18092057 -215.42796538 193.30673271 -212.421875 205.75390625 C-212.25204102 206.46224609 -212.08220703 207.17058594 -211.90722656 207.90039062 C-207.66490451 224.7882523 -199.811001 241.55698247 -188.421875 254.75390625 C-187.68066406 255.63175781 -186.93945312 256.50960937 -186.17578125 257.4140625 C-170.40899579 275.53083678 -150.46672845 287.02043699 -126.421875 289.75390625 C-95.22074451 291.45307888 -70.84211379 284.1208223 -47.33227539 263.38647461 C-29.42918383 247.13127826 -18.09323706 227.12945614 -7.421875 205.75390625 C-6.90238281 206.11484375 -6.38289062 206.47578125 -5.84765625 206.84765625 C-5.15027344 207.31171875 -4.45289063 207.77578125 -3.734375 208.25390625 C-3.04988281 208.71796875 -2.36539063 209.18203125 -1.66015625 209.66015625 C1.05909606 210.98893574 2.58745373 211.23354221 5.578125 210.75390625 C11.86878632 205.90412266 15.30031354 199.20505221 17.578125 191.75390625 C17.77019531 191.16351563 17.96226562 190.573125 18.16015625 189.96484375 C18.80465671 186.55561701 18.80323149 183.14849245 18.828125 179.69140625 C18.84875 178.97146484 18.869375 178.25152344 18.890625 177.50976562 C18.92382818 173.53917384 18.92382818 173.53917384 17.52734375 169.89453125 C14.57840717 168.16890102 11.42073568 167.41217637 8.140625 166.56640625 C-2.04248281 163.74668873 -11.71690689 159.90866042 -21.421875 155.75390625 C-22.14342773 155.44614258 -22.86498047 155.13837891 -23.60839844 154.82128906 C-41.68822388 146.99544043 -58.76133838 136.68259044 -74.421875 124.75390625 C-74.98245605 124.33463867 -75.54303711 123.91537109 -76.12060547 123.48339844 C-88.93977835 113.87894074 -101.08453368 103.40206145 -110.8828125 90.66796875 C-111.39070313 90.03632812 -111.89859375 89.4046875 -112.421875 88.75390625 C-112.751875 88.75390625 -113.081875 88.75390625 -113.421875 88.75390625 Z M-396.421875 183.75390625 C-396.525 196.85078125 -396.628125 209.94765625 -396.734375 223.44140625 C-396.77989502 227.57244873 -396.82541504 231.70349121 -396.87231445 235.9597168 C-396.88903953 239.67190274 -396.88903953 239.67190274 -396.89909363 243.3841095 C-396.90675751 245.03395839 -396.92431444 246.68377975 -396.94975281 248.33345032 C-396.98641846 250.83696923 -396.9914034 253.33878165 -396.98950195 255.8425293 C-397.00749249 256.57400775 -397.02548304 257.3054862 -397.04401875 258.05913067 C-397.00377883 262.02388863 -396.57596034 263.57401867 -393.95793152 266.63044739 C-392.70258354 267.68155952 -392.70258354 267.68155952 -391.421875 268.75390625 C-388.11457506 274.20587168 -387.52761136 280.53252371 -388.421875 286.75390625 C-389.72304681 290.65742167 -391.46417129 294.24851573 -393.671875 297.71875 C-394.66201843 299.77703493 -394.66201843 299.77703493 -393.7421875 302.015625 C-393.15050781 303.21638672 -393.15050781 303.21638672 -392.546875 304.44140625 C-390.43420752 309.29696066 -389.44786407 313.48154274 -390.421875 318.75390625 C-391.3190625 319.96046875 -391.3190625 319.96046875 -392.234375 321.19140625 C-392.62625 322.03703125 -393.018125 322.88265625 -393.421875 323.75390625 C-392.37910827 326.39201696 -391.08673062 328.72890914 -389.62109375 331.15625 C-388.11775006 334.4126785 -387.95735299 336.18533526 -388.421875 339.75390625 C-389.86808763 343.40727614 -391.71095434 346.8764432 -393.578125 350.33007812 C-397.58197815 358.50222839 -396.421875 362.30834596 -396.421875 372.75390625 C-379.591875 372.75390625 -362.761875 372.75390625 -345.421875 372.75390625 C-345.421875 370.77390625 -345.421875 368.79390625 -345.421875 366.75390625 C-342.89747805 364.2295093 -342.01130681 364.49711081 -338.51953125 364.48828125 C-337.54693359 364.48570312 -336.57433594 364.483125 -335.57226562 364.48046875 C-334.55326172 364.48820313 -333.53425781 364.4959375 -332.484375 364.50390625 C-331.46923828 364.49617187 -330.45410156 364.4884375 -329.40820312 364.48046875 C-328.43431641 364.48304688 -327.46042969 364.485625 -326.45703125 364.48828125 C-325.5637915 364.49053711 -324.67055176 364.49279297 -323.75024414 364.49511719 C-321.421875 364.75390625 -321.421875 364.75390625 -318.421875 366.75390625 C-318.421875 368.73390625 -318.421875 370.71390625 -318.421875 372.75390625 C-310.501875 372.75390625 -302.581875 372.75390625 -294.421875 372.75390625 C-294.421875 310.38390625 -294.421875 248.01390625 -294.421875 183.75390625 C-328.081875 183.75390625 -361.741875 183.75390625 -396.421875 183.75390625 Z M-420.421875 279.75390625 C-421.02 280.16640625 -421.618125 280.57890625 -422.234375 281.00390625 C-424.24601064 283.96842194 -424.13292315 287.2286937 -424.421875 290.75390625 C-421.01255603 291.89034591 -420.41852044 291.62138389 -417.234375 290.31640625 C-415.97625 289.80078125 -414.718125 289.28515625 -413.421875 288.75390625 C-413.421875 284.46390625 -413.421875 280.17390625 -413.421875 275.75390625 C-415.83174444 275.75390625 -418.55706708 278.44854071 -420.421875 279.75390625 Z M-271.421875 280.75390625 C-279.92056367 290.87139276 -278.00458794 303.33913243 -277.421875 315.75390625 C-274.84366361 313.17569486 -274.39752692 310.92691251 -273.359375 307.44140625 C-273.01777344 306.31089844 -272.67617188 305.18039062 -272.32421875 304.015625 C-270.80827156 298.53590246 -270.28866342 293.62552958 -270.359375 287.94140625 C-270.36388672 287.24853516 -270.36839844 286.55566406 -270.37304688 285.84179688 C-270.38474344 284.14579557 -270.40267576 282.44983922 -270.421875 280.75390625 C-270.751875 280.75390625 -271.081875 280.75390625 -271.421875 280.75390625 Z M-421.421875 307.75390625 C-422.47363052 310.88079053 -422.47363052 310.88079053 -422.421875 313.75390625 C-419.451875 314.08390625 -416.481875 314.41390625 -413.421875 314.75390625 C-413.421875 311.12390625 -413.421875 307.49390625 -413.421875 303.75390625 C-416.28396033 303.75390625 -419.25066746 305.9934677 -421.421875 307.75390625 Z M-420.421875 339.75390625 C-419.761875 341.40390625 -419.101875 343.05390625 -418.421875 344.75390625 C-416.771875 344.75390625 -415.121875 344.75390625 -413.421875 344.75390625 C-413.421875 341.78390625 -413.421875 338.81390625 -413.421875 335.75390625 C-415.81363099 335.75390625 -418.50685984 338.45006614 -420.421875 339.75390625 Z " fill="#001A30" transform="translate(438.421875,12.24609375)"/>
<path d="M0 0 C3.09314103 2.11635965 3.85756054 3.41837218 4.75 7.0625 C4.36897832 12.39680349 0.60437824 16.23600811 -2.60888672 20.25537109 C-4.15479741 22.19413519 -5.67422431 24.15195835 -7.19140625 26.11328125 C-9.56392572 29.17795397 -11.94486235 32.23578827 -14.33203125 35.2890625 C-17.87961551 39.83425792 -21.38134701 44.41329752 -24.875 49 C-38.37768618 66.68884309 -38.37768618 66.68884309 -41 68 C-45.25587976 68.49106305 -47.30970651 68.48499474 -50.86328125 65.98828125 C-54.54610704 62.73717151 -57.19611498 58.8590936 -59.9375 54.8125 C-60.98421461 53.29155627 -62.03108892 51.77072244 -63.078125 50.25 C-63.57763672 49.51910156 -64.07714844 48.78820312 -64.59179688 48.03515625 C-66.90785027 44.68796119 -69.34806091 41.4297097 -71.79296875 38.17578125 C-73.31175189 35.43803946 -73.73232938 33.10748858 -74 30 C-72.76356597 27.13667909 -71.66847461 25.50711867 -69.1875 23.625 C-66.03854906 22.72529973 -64.13041888 23.04170851 -61 24 C-56.56593626 27.88352562 -53.43966426 32.45379264 -50.1875 37.3125 C-49.68541016 38.05306641 -49.18332031 38.79363281 -48.66601562 39.55664062 C-47.43907229 41.36784269 -46.21724734 43.18227378 -45 45 C-40.95120842 41.16469016 -37.66306836 37.05778711 -34.375 32.5625 C-29.12207803 25.46991269 -23.74300577 18.49481674 -18.25195312 11.58544922 C-17.03667679 10.04644677 -15.83836012 8.49409929 -14.640625 6.94140625 C-13.93421875 6.03261719 -13.2278125 5.12382812 -12.5 4.1875 C-11.58734375 3.00220703 -11.58734375 3.00220703 -10.65625 1.79296875 C-7.41615919 -1.71458239 -4.3041563 -1.14191902 0 0 Z " fill="#21B04C" transform="translate(127,251)"/>
<path d="M0 0 C3.44504639 0.92823131 5.38253034 3.19902353 7.90625 5.62890625 C15.10058816 11.86316808 23.69972944 14.93138231 33.16015625 14.58203125 C42.62899209 13.85365926 52.05171786 9.79988091 58.91015625 3.20703125 C61.36177771 0.93523533 62.98692862 0.11035779 66.34765625 -0.10546875 C70.16015625 0.58203125 70.16015625 0.58203125 72.72265625 2.70703125 C74.16015625 5.58203125 74.16015625 5.58203125 74.34765625 8.45703125 C71.04989589 17.13534798 62.09486079 21.68224945 54.16015625 25.58203125 C41.71839324 31.16276927 26.65459076 31.78893561 13.66015625 27.64453125 C4.90551578 24.0122868 -3.34777822 18.40790754 -8.83984375 10.58203125 C-9.31616569 7.24777766 -9.14319564 5.30249198 -7.83984375 2.20703125 C-5.31351203 0.15438673 -3.22578715 -0.15806942 0 0 Z " fill="#001A30" transform="translate(289.83984375,221.41796875)"/>
<path d="M0 0 C3.78891377 2.70536832 7.44132043 5.4726731 9.7421875 9.57421875 C9.68196236 13.06727664 9.37876918 15.47788364 7.6171875 18.51171875 C4.30472855 20.38877882 2.52049515 20.23392326 -1.2578125 19.57421875 C-4.02298766 17.68601113 -6.51098518 15.63392541 -9.0234375 13.421875 C-12.51659062 10.53330607 -15.61807883 10.29005752 -20.07421875 10.35546875 C-25.18126746 10.86708723 -29.25662829 12.85336612 -33.3828125 15.82421875 C-36.2578125 17.57421875 -36.2578125 17.57421875 -39.4453125 17.51171875 C-43.7578125 16.07421875 -43.7578125 16.07421875 -45.2578125 13.57421875 C-45.85796727 9.52317408 -45.84073089 7.42777782 -43.5078125 4.01171875 C-30.92892327 -6.89965203 -14.03654451 -8.86390786 0 0 Z " fill="#001A30" transform="translate(381.2578125,172.42578125)"/>
<path d="M0 0 C3.78891377 2.70536832 7.44132043 5.4726731 9.7421875 9.57421875 C9.68196236 13.06727664 9.37876918 15.47788364 7.6171875 18.51171875 C4.30472855 20.38877882 2.52049515 20.23392326 -1.2578125 19.57421875 C-4.02298766 17.68601113 -6.51098518 15.63392541 -9.0234375 13.421875 C-12.51659062 10.53330607 -15.61807883 10.29005752 -20.07421875 10.35546875 C-25.18126746 10.86708723 -29.25662829 12.85336612 -33.3828125 15.82421875 C-36.2578125 17.57421875 -36.2578125 17.57421875 -39.4453125 17.51171875 C-43.7578125 16.07421875 -43.7578125 16.07421875 -45.2578125 13.57421875 C-45.85796727 9.52317408 -45.84073089 7.42777782 -43.5078125 4.01171875 C-30.92892327 -6.89965203 -14.03654451 -8.86390786 0 0 Z " fill="#001A30" transform="translate(296.2578125,172.42578125)"/>
</svg>
