<svg width="817" height="817" viewBox="0 0 817 817" fill="none" xmlns="http://www.w3.org/2000/svg">
  <rect width="817" height="817" rx="128" fill="#001B30"/>
  <path d="M278.391 261.272C287.227 261.272 294.391 268.435 294.391 277.272V466.972C294.39 475.809 287.227 482.972 278.391 482.972H175.391L174.978 482.967C166.332 482.748 159.391 475.67 159.391 466.972V277.272C159.391 268.574 166.332 261.496 174.978 261.277L175.391 261.272H278.391ZM175.391 466.972H278.391V277.272H175.391V466.972Z" fill="white"/>
  <path d="M196 364L215.716 391.41C216.107 391.954 216.911 391.967 217.32 391.437L257 340" stroke="#22B14C" stroke-width="16" stroke-linecap="round"/>
  <path d="M490.391 126.272C486.72 136.321 474.305 155.171 460.783 170.472M490.391 126.272C596.791 140.272 601.391 222.272 587.891 255.272M490.391 126.272C478.002 123.242 466.697 121.624 456.391 121.202C375.532 117.889 341.709 195.211 342.891 235.272M342.891 235.272C394.18 223.493 439.319 194.761 460.783 170.472M342.891 235.272C342.713 238.653 348.428 246.986 348.391 250.272C342.891 401.772 502.891 447.272 567.891 309.272C593.593 325.572 611.891 255.272 587.891 255.272M460.783 170.472C469.585 186.972 514.691 233.672 587.891 255.272" stroke="white" stroke-width="14"/>
  <path d="M463.69 447.972C402.09 442.372 399.058 397.439 403.891 376.772C423.411 388.292 468.027 401.655 510.847 377.226C512.702 376.033 514.492 374.942 516.19 373.972C514.413 375.124 512.632 376.208 510.847 377.226C487.214 392.437 453.026 424.473 463.69 439.772C478.391 450.272 474.19 448.472 463.69 447.972Z" fill="white" stroke="white" stroke-width="14"/>
  <path d="M396.891 377.272C371.724 390.605 327.891 412.772 313.891 446.272M535.689 362.472C553.391 396.272 615.094 388.866 649.891 429.772C715.391 506.772 646.391 576.272 558.391 607.272C447.994 646.162 487.391 687.272 499.391 691.272C514.894 696.44 540.102 714.808 537.244 727.588C537.105 728.209 536.383 728.448 535.86 728.085C523.107 719.224 523.18 705.772 457.891 705.772C409.613 705.772 340.232 633.737 404.002 559.793C404.435 559.291 404.297 558.487 403.711 558.177C397.702 554.993 389.178 548.358 381.719 542.272M350.391 486.272C349.649 509.53 362.706 525.458 377.689 538.833C379.026 540.027 380.373 541.173 381.719 542.272M318.391 503.772C307.221 497.708 294.353 485.936 287.152 477.7C284.414 474.568 284.626 470.028 285.768 466.028C288.411 456.775 287.537 443.238 292.391 426.772C303.391 419.272 312.777 386.873 309.391 370.772C305.371 351.656 292.891 372.272 290.391 380.272M166.891 416.272C164.376 418.066 139.858 428.706 142.891 434.772C150.391 443.772 147.891 448.772 171.891 444.272C178.291 429.872 175.891 433.272 176.891 432.272C180.073 429.09 170.041 414.026 166.891 416.272ZM166.891 416.272C158.058 414.531 142.891 417.272 142.891 406.272C142.891 403.984 145.391 390.382 151.391 392.772M166.891 416.272C166.891 410.272 179.891 414.272 174.891 403.772C173.595 401.05 169.993 389.691 166.891 389.272M151.391 392.772C140.391 389.772 140.891 386.772 141.391 378.772C142.39 362.795 173.189 352.272 177.189 370.772C180.389 385.572 168.224 388.297 166.891 389.272M151.391 392.772C154.891 392.272 155.93 387.79 166.891 389.272M381.719 542.272C350.61 584.105 271.591 631.972 204.391 488.772" stroke="white" stroke-width="14" stroke-linecap="round"/>
  <path d="M540.391 89.2722C500.891 81.2722 482.391 121.772 481.391 124.772L502.391 127.272C503.891 122.272 519.569 86.6451 542.391 100.272C611.891 141.772 638.391 123.272 645.891 101.272C649.282 91.3248 649.391 91.2721 640.891 98.2721C583.891 127.772 579.891 97.2722 540.391 89.2722Z" fill="white" stroke="white" stroke-width="14"/>
  <path d="M477.391 263.47C484.711 257.004 503.003 248.51 517.613 266.263" stroke="white" stroke-width="14" stroke-linecap="round"/>
  <path d="M392.391 263.47C399.711 257.004 418.003 248.51 432.613 266.263" stroke="white" stroke-width="14" stroke-linecap="round"/>
  <path d="M490.391 310.272C478.831 321.591 449.047 337.438 422.391 310.272" stroke="white" stroke-width="14" stroke-linecap="round"/>
  <rect x="226.689" y="457.972" width="28" height="9" rx="4.5" fill="white"/>
</svg>